<svg aria-hidden="true" style="position: absolute; width: 0; height: 0; overflow: hidden;" version="1.1" xmlns="http://www.w3.org/2000/svg" xmlns:xlink="http://www.w3.org/1999/xlink">
<defs>
<symbol id="icon-envelope" viewBox="0 0 32 32">
<path fill="#757575" style="fill: var(--color1, #757575)" d="M29 4h-26c-1.654 0-3 1.256-3 2.801v16.803c0 1.544 1.346 2.801 3 2.801h26c1.654 0 3-1.256 3-2.801v-16.803c0-1.544-1.346-2.801-3-2.801zM29 5.867c0.136 0 0.265 0.026 0.383 0.072l-13.383 10.828-13.383-10.828c0.118-0.046 0.247-0.072 0.383-0.072h26zM29 24.537h-26c-0.552 0-1-0.418-1-0.934v-15.692l13.345 10.796c0.188 0.152 0.422 0.228 0.655 0.228s0.467-0.076 0.655-0.228l13.345-10.796v15.692c0 0.515-0.448 0.934-1 0.934z"></path>
</symbol>
<symbol id="icon-smartphone" viewBox="0 0 32 32">
<path fill="#757575" style="fill: var(--color1, #757575)" d="M23.467 0h-14.933c-1.765 0-3.2 1.34-3.2 2.987v25.889c0 1.647 1.435 2.987 3.2 2.987h14.933c1.765 0 3.2-1.34 3.2-2.987v-25.889c0-1.647-1.435-2.987-3.2-2.987zM8.533 1.991h14.933c0.589 0 1.067 0.446 1.067 0.996v20.91h-17.067v-20.91c0-0.549 0.478-0.996 1.067-0.996zM23.467 29.872h-14.933c-0.589 0-1.067-0.446-1.067-0.996v-2.987h17.067v2.987c0 0.55-0.478 0.996-1.067 0.996z"></path>
</symbol>
<symbol id="icon-Satellite-dish" viewBox="0 0 30 32">
<path fill="#212121" style="fill: var(--color2, #212121)" d="M29.859 22.098l-8.443-8.505 0.937-4.615c0.242 0.094 0.499 0.144 0.758 0.146h0.006c1.192 0.014 2.17-0.941 2.184-2.133s-0.941-2.17-2.133-2.184c-1.192-0.014-2.17 0.941-2.184 2.133-0.003 0.255 0.039 0.509 0.125 0.749l-4.96 0.605-8.091-8.133c-0.099-0.101-0.235-0.159-0.377-0.16-0.14 0.001-0.274 0.056-0.373 0.155l-1.513 1.504c-0.208 0.208-0.208 0.546 0 0.754l0.814 0.826c-3.153 5.798-2.129 12.978 2.519 17.663 0.043 0.041 0.092 0.074 0.146 0.098-0.034 0.18-0.051 0.364-0.052 0.547v6.187h-6.4c-1.472 0.002-2.665 1.195-2.667 2.667v1.067c0 0.295 0.239 0.533 0.533 0.533h24.533c0.295 0 0.533-0.239 0.533-0.533v-1.067c-0.002-1.472-1.195-2.665-2.667-2.667h-6.4v-2.742c1.003 0.21 2.024 0.317 3.049 0.32 2.458-0.003 4.877-0.615 7.040-1.783l0.818 0.823c0.099 0.101 0.235 0.159 0.377 0.16 0.14-0.001 0.274-0.056 0.373-0.155l1.513-1.504c0.208-0.208 0.208-0.546 0-0.754zM22.366 6.233c0.418-0.415 1.093-0.414 1.508 0.004s0.414 1.093-0.004 1.508c-0.2 0.199-0.47 0.31-0.752 0.31h-0.003c-0.589-0.003-1.064-0.483-1.061-1.072 0.002-0.282 0.115-0.552 0.314-0.751h-0.002zM21.11 9.738l-0.598 2.946-1.175-1.182 1.774-1.763zM20.504 8.836l-1.92 1.909-1.485-1.493 3.405-0.415zM23.090 28.8c0.884 0 1.6 0.716 1.6 1.6v0.533h-23.467v-0.533c0-0.884 0.716-1.6 1.6-1.6h20.267zM15.623 26.667v1.067h-5.333v-1.067h5.333zM10.29 25.6v-4.053c0-1.294 1.196-2.347 2.667-2.347s2.667 1.053 2.667 2.347v4.053h-5.333zM16.69 23.904v-2.357c0-1.882-1.675-3.413-3.733-3.413-1.331-0.020-2.576 0.657-3.281 1.786-4.058-4.274-4.971-10.645-2.279-15.887l18.602 18.708c-2.872 1.461-6.165 1.873-9.309 1.163zM27.979 23.22l-21.057-21.181 0.755-0.752 7.935 7.98c0.004 0 0.006 0.007 0.010 0.010l13.115 13.191-0.757 0.752z"></path>
<path fill="#2196f3" style="fill: var(--color3, #2196f3)" d="M12.961 20.267h-0.005c-0.884-0.001-1.601 0.714-1.602 1.598s0.714 1.601 1.598 1.602h0.005c0.884 0.001 1.601-0.714 1.602-1.598s-0.714-1.601-1.598-1.602zM13.335 22.245c-0.1 0.1-0.236 0.156-0.378 0.155-0.295-0.002-0.532-0.242-0.531-0.536 0.001-0.141 0.057-0.276 0.157-0.375s0.233-0.154 0.373-0.155c0.295 0.002 0.532 0.242 0.53 0.536-0.001 0.141-0.057 0.276-0.157 0.375h0.005z"></path>
</symbol>
<symbol id="icon-clock" viewBox="0 0 32 32">
<path fill="#212121" style="fill: var(--color2, #212121)" d="M31.297 15.301c-0.002-8.452-6.855-15.303-15.308-15.301s-15.303 6.855-15.301 15.308c0.001 6.658 4.307 12.551 10.649 14.576 0.061 0.019 0.124 0.029 0.187 0.029 0.121-0 0.239-0.032 0.342-0.094 0.135-0.080 0.236-0.207 0.283-0.356l3.865-12.25c1.057-0.005 1.909-0.866 1.903-1.923s-0.866-1.909-1.923-1.903c-0.284 0.001-0.565 0.067-0.82 0.191l-5.106-5.107c-0.253-0.245-0.657-0.238-0.902 0.016-0.239 0.247-0.239 0.639 0 0.886l5.103 5.109c-0.392 0.799-0.168 1.764 0.536 2.309l-3.683 11.673c-7.278-2.681-11.004-10.754-8.323-18.032s10.754-11.004 18.032-8.323 11.004 10.754 8.323 18.032c-1.31 3.556-4.001 6.431-7.462 7.973l-0.398-1.874c-0.073-0.344-0.411-0.565-0.756-0.492-0.109 0.023-0.209 0.074-0.292 0.148l-3.837 3.426c-0.263 0.234-0.287 0.637-0.052 0.9 0.076 0.085 0.174 0.149 0.283 0.184l4.899 1.563c0.335 0.108 0.694-0.077 0.802-0.412 0.034-0.106 0.040-0.219 0.017-0.328l-0.391-1.839c5.664-2.388 9.342-7.942 9.329-14.089zM15.992 14.664c0.352 0 0.638 0.286 0.638 0.638s-0.286 0.638-0.638 0.638c-0.352 0-0.638-0.285-0.638-0.638s0.285-0.638 0.638-0.638zM18.093 29.528l2.184-1.948 0.603 2.84-2.787-0.892z"></path>
<path fill="#2196f3" style="fill: var(--color3, #2196f3)" d="M15.354 3.185v1.275c0 0.352 0.285 0.638 0.638 0.638s0.638-0.285 0.638-0.638v-1.275c0-0.352-0.286-0.638-0.638-0.638s-0.638 0.286-0.638 0.638z"></path>
</symbol>
<symbol id="icon-laptop_diagram" viewBox="0 0 32 32">
<path fill="#2196f3" style="fill: var(--color3, #2196f3)" d="M14.926 14.965h1.066v4.798h-1.066v-4.797z"></path>
<path fill="#212121" style="fill: var(--color2, #212121)" d="M1.599 28.291h25.587c0.883 0 1.599-0.716 1.599-1.599v-2.132c0-0.883-0.716-1.599-1.599-1.599h-0.533v-13.293l3.028-2.868c0.703 0.346 1.553 0.136 2.013-0.499s0.396-1.508-0.152-2.068-1.42-0.644-2.065-0.198c-0.644 0.446-0.873 1.292-0.542 2.002l-2.281 2.163v-1.23c0-0.883-0.716-1.599-1.599-1.599h-21.322c-0.883 0-1.599 0.716-1.599 1.599v15.992h-0.533c-0.883 0-1.599 0.716-1.599 1.599v2.132c0 0.883 0.716 1.599 1.599 1.599zM30.384 4.837c0.294 0 0.533 0.239 0.533 0.533s-0.239 0.533-0.533 0.533c-0.294 0-0.533-0.239-0.533-0.533s0.239-0.533 0.533-0.533zM3.198 6.969c0-0.294 0.239-0.533 0.533-0.533h21.322c0.294 0 0.533 0.239 0.533 0.533v2.239l-1.066 1.013v-2.186c0-0.294-0.239-0.533-0.533-0.533h-19.19c-0.294 0-0.533 0.239-0.533 0.533v13.326c0 0.294 0.239 0.533 0.533 0.533h19.19c0.294 0 0.533-0.239 0.533-0.533v-9.674l1.066-1.010v12.284h-22.388v-15.992zM7.996 13.899c-0.721-0.002-1.354 0.478-1.546 1.174s0.105 1.433 0.725 1.801c0.62 0.368 1.41 0.276 1.928-0.226l1.853 0.93c0.215 0.108 0.476 0.057 0.636-0.123l3.939-4.431 3.872 2.901c0.208 0.156 0.498 0.139 0.686-0.039l3.365-3.188v8.131h-18.124v-12.26h18.124v2.66l-3.771 3.572-3.904-2.927c-0.222-0.166-0.534-0.135-0.718 0.072l-3.993 4.493-1.493-0.746c0.011-0.064 0.018-0.129 0.020-0.193 0-0.883-0.716-1.599-1.599-1.599zM8.529 15.498c0 0.294-0.239 0.533-0.533 0.533s-0.533-0.239-0.533-0.533c0-0.294 0.239-0.533 0.533-0.533s0.533 0.239 0.533 0.533zM11.727 24.026h5.331v0.533c0 0.294-0.239 0.533-0.533 0.533h-4.264c-0.294 0-0.533-0.239-0.533-0.533v-0.533zM1.066 24.56c0-0.294 0.239-0.533 0.533-0.533h9.062v0.533c0 0.883 0.716 1.599 1.599 1.599h4.264c0.883 0 1.599-0.716 1.599-1.599v-0.533h9.062c0.294 0 0.533 0.239 0.533 0.533v2.132c0 0.294-0.239 0.533-0.533 0.533h-25.587c-0.294 0-0.533-0.239-0.533-0.533v-2.132z"></path>
</symbol>
<symbol id="icon-astronaut" viewBox="0 0 32 32">
<path fill="#2196f3" style="fill: var(--color3, #2196f3)" d="M4.8 7.189h-1.067v1.067h1.067v-1.067z"></path>
<path fill="#212121" style="fill: var(--color2, #212121)" d="M19.711 9.322h-1.067v1.067h1.067v-1.067z"></path>
</symbol>
<symbol id="icon-instagram" viewBox="0 0 32 32">
<path fill="#afb1b8" style="fill: var(--color4, #afb1b8)" d="M26.524 7.458c0 1.060-0.859 1.919-1.919 1.919s-1.919-0.859-1.919-1.919c0-1.060 0.859-1.919 1.919-1.919s1.919 0.859 1.919 1.919z"></path>
</symbol>
<symbol id="icon-twitter" viewBox="0 0 32 32">
<path fill="#afb1b8" style="fill: var(--color4, #afb1b8)" d="M32 6.078c-1.19 0.522-2.458 0.868-3.78 1.036 1.36-0.812 2.398-2.088 2.886-3.626-1.268 0.756-2.668 1.29-4.16 1.588-1.204-1.282-2.92-2.076-4.792-2.076-3.632 0-6.556 2.948-6.556 6.562 0 0.52 0.044 1.020 0.152 1.496-5.454-0.266-10.28-2.88-13.522-6.862-0.566 0.982-0.898 2.106-0.898 3.316 0 2.272 1.17 4.286 2.914 5.452-1.054-0.020-2.088-0.326-2.964-0.808 0 0.020 0 0.046 0 0.072 0 3.188 2.274 5.836 5.256 6.446-0.534 0.146-1.116 0.216-1.72 0.216-0.42 0-0.844-0.024-1.242-0.112 0.85 2.598 3.262 4.508 6.13 4.57-2.232 1.746-5.066 2.798-8.134 2.798-0.538 0-1.054-0.024-1.57-0.090 2.906 1.874 6.35 2.944 10.064 2.944 12.072 0 18.672-10 18.672-18.668 0-0.29-0.010-0.57-0.024-0.848 1.302-0.924 2.396-2.078 3.288-3.406z"></path>
</symbol>
<symbol id="icon-facebook" viewBox="0 0 32 32">
<path fill="#afb1b8" style="fill: var(--color4, #afb1b8)" d="M21.329 5.313h2.921v-5.088c-0.504-0.069-2.237-0.225-4.256-0.225-4.212 0-7.097 2.649-7.097 7.519v4.481h-4.648v5.688h4.648v14.312h5.699v-14.311h4.46l0.708-5.688h-5.169v-3.919c0.001-1.644 0.444-2.769 2.735-2.769z"></path>
</symbol>
<symbol id="icon-linkedin" viewBox="0 0 32 32">
<path fill="#afb1b8" style="fill: var(--color4, #afb1b8)" d="M0.528 10.636h6.635v21.364h-6.635v-21.364z"></path>
</symbol>
<symbol id="icon-logo-1" viewBox="0 0 32 32">
<path fill="#afb1b8" style="fill: var(--color4, #afb1b8)" d="M5.44 0l4.677 4.428h13.046v12.351l4.677 4.428v-21.206h-22.4z"></path>
</symbol>
<symbol id="icon-logo-2" viewBox="0 0 32 32">
<path fill="#afb1b8" style="fill: var(--color4, #afb1b8)" d="M11.029 30.998h-0.199v0.984h0.69v-0.167h-0.49v-0.817z"></path>
</symbol>
<symbol id="icon-logo-3" viewBox="0 0 32 32">
<path fill="#afb1b8" style="fill: var(--color4, #afb1b8)" d="M31.256 13.878c-0.010-3.343-1.409-6.546-3.89-8.91s-5.843-3.696-9.352-3.706c-1.621-0.002-3.229 0.283-4.741 0.841l17.099 16.291c0.585-1.44 0.885-2.971 0.884-4.515z"></path>
</symbol>
<symbol id="icon-logo-4" viewBox="0 0 32 32">
<path fill="#2196f3" style="fill: var(--color3, #2196f3)" d="M10.036 21.312h-0.675v0.697h-0.352v-1.706h1.111v0.285h-0.759v0.441h0.675v0.284zM11.725 21.195c0 0.168-0.030 0.315-0.089 0.442s-0.145 0.224-0.255 0.293c-0.11 0.069-0.237 0.103-0.38 0.103-0.141 0-0.268-0.034-0.379-0.102s-0.197-0.165-0.258-0.291c-0.061-0.127-0.092-0.272-0.093-0.436v-0.084c0-0.168 0.030-0.316 0.090-0.443s0.146-0.226 0.257-0.294c0.111-0.069 0.237-0.103 0.38-0.103s0.268 0.034 0.379 0.103c0.111 0.068 0.196 0.166 0.257 0.294s0.091 0.275 0.091 0.442v0.076zM11.369 21.118c0-0.179-0.032-0.315-0.096-0.408s-0.155-0.139-0.274-0.139c-0.118 0-0.209 0.046-0.273 0.138s-0.096 0.226-0.097 0.403v0.083c0 0.174 0.032 0.309 0.096 0.405s0.156 0.144 0.277 0.144c0.118 0 0.209-0.046 0.272-0.138s0.095-0.228 0.096-0.405v-0.083zM12.866 21.562c0-0.066-0.023-0.117-0.070-0.152s-0.131-0.073-0.253-0.112c-0.122-0.040-0.218-0.079-0.289-0.117-0.194-0.105-0.291-0.246-0.291-0.423 0-0.092 0.026-0.174 0.077-0.246s0.127-0.129 0.224-0.17c0.098-0.041 0.207-0.061 0.328-0.061s0.23 0.022 0.326 0.067c0.095 0.044 0.169 0.106 0.221 0.186s0.080 0.172 0.080 0.274h-0.352c0-0.078-0.025-0.139-0.074-0.182s-0.118-0.066-0.207-0.066c-0.086 0-0.153 0.018-0.2 0.055s-0.071 0.084-0.071 0.143c0 0.055 0.028 0.102 0.083 0.139s0.139 0.073 0.247 0.105c0.2 0.060 0.346 0.135 0.437 0.224s0.137 0.2 0.137 0.333c0 0.148-0.056 0.264-0.168 0.348s-0.262 0.125-0.451 0.125c-0.131 0-0.251-0.024-0.359-0.071s-0.19-0.114-0.247-0.198c-0.056-0.084-0.084-0.18-0.084-0.291h0.353c0 0.188 0.113 0.282 0.338 0.282 0.084 0 0.149-0.017 0.196-0.050s0.070-0.082 0.070-0.143zM14.742 20.588h-0.523v1.421h-0.352v-1.421h-0.516v-0.285h1.39v0.285zM15.97 21.27h-0.675v0.457h0.792v0.282h-1.144v-1.706h1.141v0.285h-0.79v0.407h0.675v0.275zM16.925 21.385h-0.28v0.625h-0.352v-1.706h0.634c0.202 0 0.357 0.045 0.466 0.135s0.164 0.217 0.164 0.381c0 0.116-0.025 0.214-0.076 0.292s-0.126 0.139-0.228 0.185l0.369 0.697v0.016h-0.377l-0.32-0.625zM16.645 21.1h0.284c0.088 0 0.157-0.022 0.205-0.067s0.073-0.107 0.073-0.186c0-0.080-0.023-0.144-0.069-0.19s-0.115-0.069-0.21-0.069h-0.282v0.512zM18.775 21.409v0.601h-0.352v-1.706h0.666c0.128 0 0.241 0.023 0.337 0.070s0.173 0.114 0.225 0.2c0.052 0.086 0.079 0.184 0.079 0.294 0 0.167-0.057 0.299-0.172 0.396s-0.272 0.144-0.475 0.144h-0.308zM18.775 21.124h0.314c0.093 0 0.164-0.022 0.212-0.066s0.074-0.106 0.074-0.187c0-0.084-0.025-0.151-0.074-0.203s-0.117-0.078-0.204-0.080h-0.322v0.536zM21 21.27h-0.675v0.457h0.792v0.282h-1.144v-1.706h1.141v0.285h-0.79v0.407h0.675v0.275zM22.631 20.588h-0.523v1.421h-0.352v-1.421h-0.516v-0.285h1.39v0.285zM23.859 21.27h-0.675v0.457h0.792v0.282h-1.144v-1.706h1.141v0.285h-0.79v0.407h0.675v0.275zM24.814 21.385h-0.28v0.625h-0.352v-1.706h0.634c0.202 0 0.357 0.045 0.466 0.135s0.164 0.217 0.164 0.381c0 0.116-0.025 0.214-0.076 0.292s-0.126 0.139-0.229 0.185l0.369 0.697v0.016h-0.377l-0.32-0.625zM24.534 21.1h0.284c0.088 0 0.157-0.022 0.205-0.067s0.073-0.107 0.073-0.186c0-0.080-0.023-0.144-0.069-0.19s-0.115-0.069-0.21-0.069h-0.282v0.512zM26.6 21.562c0-0.066-0.023-0.117-0.070-0.152s-0.131-0.073-0.253-0.112c-0.122-0.040-0.218-0.079-0.289-0.117-0.194-0.105-0.291-0.246-0.291-0.423 0-0.092 0.026-0.174 0.077-0.246s0.127-0.129 0.224-0.17c0.098-0.041 0.207-0.061 0.328-0.061s0.23 0.022 0.326 0.067c0.095 0.044 0.169 0.106 0.221 0.186s0.080 0.172 0.080 0.274h-0.352c0-0.078-0.025-0.139-0.074-0.182s-0.118-0.066-0.207-0.066c-0.086 0-0.153 0.018-0.2 0.055s-0.071 0.084-0.071 0.143c0 0.055 0.028 0.102 0.083 0.139s0.139 0.073 0.247 0.105c0.2 0.060 0.346 0.135 0.437 0.224s0.137 0.2 0.137 0.333c0 0.148-0.056 0.264-0.168 0.348s-0.262 0.125-0.451 0.125c-0.131 0-0.251-0.024-0.359-0.071s-0.19-0.114-0.247-0.198c-0.056-0.084-0.084-0.18-0.084-0.291h0.353c0 0.188 0.112 0.282 0.337 0.282 0.084 0 0.149-0.017 0.196-0.050s0.070-0.082 0.070-0.143z"></path>
</symbol>
<symbol id="icon-logo-5" viewBox="0 0 32 32">
<path fill="#afb1b8" style="fill: var(--color4, #afb1b8)" d="M24.615 23.073c-0.085 1.032-0.032 2.072 0.157 3.090 3.472-2.086 7.373-5.308 7.223-9.203v-0.339c-2.48 0.279-4.801 1.367-6.606 3.099-0.422 1.073-0.683 2.203-0.774 3.353z"></path>
</symbol>
<symbol id="icon-logo-6" viewBox="0 0 32 32">
<path fill="#afb1b8" style="fill: var(--color4, #afb1b8)" d="M10.428 23.543l4.025-3.811-4.025-1.083v4.895z"></path>
</symbol>
<symbol id="icon-paper_airplane" viewBox="0 0 32 32">
<path fill="#fff" style="fill: var(--color5, #fff)" d="M32 0l-32 18 10.227 3.788 15.773-14.788-11.998 16.186 0.010 0.004-0.012-0.004v8.814l5.735-6.691 7.265 2.691 5-28z"></path>
</symbol>
</defs>
</svg>
